<?xml version="1.0" encoding="utf-8"?>
<!-- Generator: Adobe Illustrator 24.1.3, SVG Export Plug-In . SVG Version: 6.00 Build 0)  -->
<svg version="1.1" id="Layer_1" xmlns="http://www.w3.org/2000/svg" xmlns:xlink="http://www.w3.org/1999/xlink" x="0px" y="0px"
	 viewBox="0 0 200 200" style="enable-background:new 0 0 200 200;" xml:space="preserve">
<style type="text/css">
	.st0{fill:#6CDEF9;}
	.st1{fill:#FFFFFF;fill-opacity:0;}
</style>
<path class="st0" d="M170.7,28.8C151.1,9.6,127.5,0,99.9,0C72.1,0,48.4,9.6,28.8,28.8C9.6,48.4,0,72.1,0,99.9
	c0,27.6,9.6,51.2,28.8,70.7C48.4,190.2,72.1,200,99.9,200c27.6,0,51.2-9.7,70.7-29.2c19.5-19.6,29.2-43.3,29.2-70.9
	C199.9,72.1,190.1,48.4,170.7,28.8 M106.2,41.9H123l7.2,27h17.1l-11.7,20.7l16.6,61.6H135l-11.2-41.4l-23.9,41.4H81l36.9-63.9
	l-6.3-22.5l-49.5,86.4H42.8L106.2,41.9z"/>
<path class="st1" d="M123,41.9h-16.7L42.8,151.3h19.3l49.5-86.4l6.3,22.5L81,151.3h18.9l23.9-41.4l11.3,41.4
	c33.7-1.3-5.5-51.1,12.2-82.3h-17.1L123,41.9z"/>
</svg>
