<svg xmlns="http://www.w3.org/2000/svg" xmlns:xlink="http://www.w3.org/1999/xlink" viewBox="0 0 30 30"><defs><linearGradient id="linear-gradient" x1="13.42" y1="1.16" x2="13.42" y2="0.69" gradientTransform="matrix(1, 0, 0, -1, 0, 30.69)" gradientUnits="userSpaceOnUse"><stop offset="0.16" stop-color="#73eff7"/><stop offset="0.7" stop-color="#6af5fe" stop-opacity="0.49"/></linearGradient><linearGradient id="linear-gradient-2" x1="25.02" y1="3.18" x2="25.02" y2="2.41" xlink:href="#linear-gradient"/><linearGradient id="linear-gradient-3" x1="28.15" y1="5.19" x2="28.15" y2="4.11" gradientTransform="matrix(1, 0, 0, -1, 0, 30.69)" gradientUnits="userSpaceOnUse"><stop offset="0.2" stop-color="#2aa5c0"/><stop offset="0.76" stop-color="#33dfea"/></linearGradient><linearGradient id="linear-gradient-4" x1="3.58" y1="4.48" x2="3.58" y2="2.78" xlink:href="#linear-gradient-3"/><linearGradient id="linear-gradient-5" x1="2.17" y1="5.36" x2="2.17" y2="3.51" xlink:href="#linear-gradient-3"/><linearGradient id="linear-gradient-6" x1="5.15" y1="3.62" x2="5.15" y2="2.17" xlink:href="#linear-gradient"/><linearGradient id="linear-gradient-7" x1="8.31" y1="2.32" x2="8.31" y2="1.3" xlink:href="#linear-gradient"/><linearGradient id="linear-gradient-8" x1="9.93" y1="1.84" x2="9.93" y2="1" xlink:href="#linear-gradient"/><linearGradient id="linear-gradient-9" x1="11.73" y1="3.94" x2="11.73" y2="2.78" xlink:href="#linear-gradient"/><linearGradient id="linear-gradient-10" x1="12.52" y1="2.43" x2="12.52" y2="1.46" xlink:href="#linear-gradient"/><linearGradient id="linear-gradient-11" x1="14.34" y1="2.09" x2="14.34" y2="1.27" xlink:href="#linear-gradient"/><linearGradient id="linear-gradient-12" x1="15.39" y1="3.04" x2="15.39" y2="2.17" xlink:href="#linear-gradient"/><linearGradient id="linear-gradient-13" x1="16.46" y1="3.99" x2="16.46" y2="3.08" xlink:href="#linear-gradient-3"/><linearGradient id="linear-gradient-14" x1="19.78" y1="2.63" x2="19.78" y2="2.02" xlink:href="#linear-gradient"/><linearGradient id="linear-gradient-15" x1="12.69" y1="5" x2="12.69" y2="3.79" xlink:href="#linear-gradient-3"/><linearGradient id="linear-gradient-16" x1="16.31" y1="1.87" x2="16.31" y2="1.16" xlink:href="#linear-gradient"/><linearGradient id="linear-gradient-17" x1="22.25" y1="4.53" x2="22.25" y2="3.73" xlink:href="#linear-gradient-3"/><linearGradient id="linear-gradient-18" x1="10.02" y1="4.57" x2="10.02" y2="3.25" xlink:href="#linear-gradient"/><linearGradient id="linear-gradient-19" x1="7.51" y1="4.12" x2="7.51" y2="2.72" xlink:href="#linear-gradient"/><linearGradient id="linear-gradient-20" x1="6.11" y1="8.59" x2="6.11" y2="6.72" xlink:href="#linear-gradient-3"/><linearGradient id="linear-gradient-21" x1="13.51" y1="3.43" x2="13.51" y2="2.43" xlink:href="#linear-gradient"/><linearGradient id="linear-gradient-22" x1="9.3" y1="6.54" x2="9.3" y2="5" xlink:href="#linear-gradient-3"/><linearGradient id="linear-gradient-23" x1="18.54" y1="1.79" x2="18.54" y2="1.16" xlink:href="#linear-gradient"/><linearGradient id="linear-gradient-24" x1="9.13" y1="3.45" x2="9.13" y2="2.2" xlink:href="#linear-gradient"/><linearGradient id="linear-gradient-25" x1="2.9" y1="6.91" x2="2.9" y2="4.98" xlink:href="#linear-gradient-3"/><linearGradient id="linear-gradient-26" x1="7.22" y1="10.25" x2="7.22" y2="8.01" gradientTransform="matrix(1, 0, 0, -1, 0, 30.69)" gradientUnits="userSpaceOnUse"><stop offset="0.21" stop-color="#2a78c0"/><stop offset="0.79" stop-color="#38b1d8"/></linearGradient><linearGradient id="linear-gradient-27" x1="4.59" y1="9.91" x2="4.59" y2="7.79" xlink:href="#linear-gradient-26"/><linearGradient id="linear-gradient-28" x1="3.71" y1="8.43" x2="3.71" y2="6.39" xlink:href="#linear-gradient-3"/><linearGradient id="linear-gradient-29" x1="10.32" y1="7.98" x2="10.32" y2="6.15" xlink:href="#linear-gradient-3"/><linearGradient id="linear-gradient-30" x1="5.72" y1="11.72" x2="5.72" y2="9.16" xlink:href="#linear-gradient-26"/><linearGradient id="linear-gradient-31" x1="19.8" y1="4.72" x2="19.8" y2="3.78" xlink:href="#linear-gradient-3"/><linearGradient id="linear-gradient-32" x1="15.62" y1="5.56" x2="15.62" y2="4.34" xlink:href="#linear-gradient-3"/><linearGradient id="linear-gradient-33" x1="13.76" y1="6.21" x2="13.76" y2="4.81" xlink:href="#linear-gradient-3"/><linearGradient id="linear-gradient-34" x1="12" y1="7.01" x2="12" y2="5.42" xlink:href="#linear-gradient-3"/><linearGradient id="linear-gradient-35" x1="8.38" y1="5.32" x2="8.38" y2="3.84" xlink:href="#linear-gradient-3"/><linearGradient id="linear-gradient-36" x1="21.14" y1="2.02" x2="21.14" y2="1.22" xlink:href="#linear-gradient"/><linearGradient id="linear-gradient-37" x1="23.76" y1="3.7" x2="23.76" y2="2.95" xlink:href="#linear-gradient-3"/><linearGradient id="linear-gradient-38" x1="18.59" y1="3.66" x2="18.59" y2="2.91" xlink:href="#linear-gradient-3"/><linearGradient id="linear-gradient-39" x1="4.38" y1="5.87" x2="4.38" y2="4.08" xlink:href="#linear-gradient-3"/><linearGradient id="linear-gradient-40" x1="5.94" y1="4.92" x2="5.94" y2="3.34" xlink:href="#linear-gradient-3"/><linearGradient id="linear-gradient-41" x1="6.77" y1="6.22" x2="6.77" y2="4.57" xlink:href="#linear-gradient-3"/><linearGradient id="linear-gradient-42" x1="22.24" y1="26.04" x2="22.24" y2="24.68" gradientTransform="matrix(1, 0, 0, -1, 0, 30.69)" gradientUnits="userSpaceOnUse"><stop offset="0.21" stop-color="#440b58"/><stop offset="0.8" stop-color="#b52fe4"/></linearGradient><linearGradient id="linear-gradient-43" x1="26.77" y1="19.62" x2="26.77" y2="18.06" gradientTransform="matrix(1, 0, 0, -1, 0, 30.69)" gradientUnits="userSpaceOnUse"><stop offset="0.18" stop-color="#6c2ac0"/><stop offset="0.83" stop-color="#7561c7"/></linearGradient><linearGradient id="linear-gradient-44" x1="19.3" y1="28.59" x2="19.3" y2="27.18" xlink:href="#linear-gradient-42"/><linearGradient id="linear-gradient-45" x1="16.12" y1="30.69" x2="16.12" y2="28.6" xlink:href="#linear-gradient-42"/><linearGradient id="linear-gradient-46" x1="29.34" y1="9.78" x2="29.34" y2="8.28" gradientTransform="matrix(1, 0, 0, -1, 0, 30.69)" gradientUnits="userSpaceOnUse"><stop offset="0.21" stop-color="#2a78c0"/><stop offset="0.78" stop-color="#38b1d8"/></linearGradient><linearGradient id="linear-gradient-47" x1="29.34" y1="8.07" x2="29.34" y2="6.63" xlink:href="#linear-gradient-46"/><linearGradient id="linear-gradient-48" x1="29.18" y1="11.44" x2="29.18" y2="10.01" xlink:href="#linear-gradient-46"/><linearGradient id="linear-gradient-49" x1="28.56" y1="14.72" x2="28.56" y2="13.27" gradientTransform="matrix(1, 0, 0, -1, 0, 30.69)" gradientUnits="userSpaceOnUse"><stop offset="0.26" stop-color="#2d2ac0"/><stop offset="0.78" stop-color="#2a66c0"/></linearGradient><linearGradient id="linear-gradient-50" x1="28.08" y1="16.33" x2="28.08" y2="14.85" xlink:href="#linear-gradient-49"/><linearGradient id="linear-gradient-51" x1="25.48" y1="16.99" x2="25.48" y2="15.34" xlink:href="#linear-gradient-49"/><linearGradient id="linear-gradient-52" x1="26.3" y1="18.37" x2="26.3" y2="16.71" xlink:href="#linear-gradient-49"/><linearGradient id="linear-gradient-53" x1="25.63" y1="20.12" x2="25.63" y2="18.38" xlink:href="#linear-gradient-43"/><linearGradient id="linear-gradient-54" x1="24.29" y1="20.59" x2="24.29" y2="18.8" xlink:href="#linear-gradient-43"/><linearGradient id="linear-gradient-55" x1="22.96" y1="21.07" x2="22.96" y2="19.24" xlink:href="#linear-gradient-43"/><linearGradient id="linear-gradient-56" x1="22.32" y1="24.64" x2="22.32" y2="22.56" gradientTransform="matrix(1, 0, 0, -1, 0, 30.69)" gradientUnits="userSpaceOnUse"><stop offset="0.21" stop-color="#6c2ac0"/><stop offset="0.77" stop-color="#7561c7"/></linearGradient><linearGradient id="linear-gradient-57" x1="24.08" y1="17.32" x2="24.08" y2="15.62" xlink:href="#linear-gradient-49"/><linearGradient id="linear-gradient-58" x1="24.77" y1="21.96" x2="24.77" y2="20.1" xlink:href="#linear-gradient-56"/><linearGradient id="linear-gradient-59" x1="19.53" y1="25.95" x2="19.53" y2="23.72" xlink:href="#linear-gradient-56"/><linearGradient id="linear-gradient-60" x1="25.85" y1="15.23" x2="25.85" y2="13.62" xlink:href="#linear-gradient-49"/><linearGradient id="linear-gradient-61" x1="27.54" y1="13.27" x2="27.54" y2="11.74" xlink:href="#linear-gradient-46"/><linearGradient id="linear-gradient-62" x1="24.52" y1="10" x2="24.52" y2="8.37" xlink:href="#linear-gradient-46"/><linearGradient id="linear-gradient-63" x1="24.96" y1="18.76" x2="24.96" y2="17.06" xlink:href="#linear-gradient-49"/><linearGradient id="linear-gradient-64" x1="24.59" y1="13.68" x2="24.59" y2="12.02" xlink:href="#linear-gradient-46"/><linearGradient id="linear-gradient-65" x1="23.7" y1="23.98" x2="23.7" y2="21.92" xlink:href="#linear-gradient-56"/><linearGradient id="linear-gradient-66" x1="24.63" y1="11.86" x2="24.63" y2="10.23" xlink:href="#linear-gradient-46"/><linearGradient id="linear-gradient-67" x1="27.25" y1="14.97" x2="27.25" y2="13.41" xlink:href="#linear-gradient-49"/><linearGradient id="linear-gradient-68" x1="27.63" y1="7.98" x2="27.63" y2="6.49" xlink:href="#linear-gradient-46"/><linearGradient id="linear-gradient-69" x1="22.67" y1="10.26" x2="22.67" y2="8.53" xlink:href="#linear-gradient-46"/><linearGradient id="linear-gradient-70" x1="24.22" y1="8.12" x2="24.22" y2="6.45" xlink:href="#linear-gradient-46"/><linearGradient id="linear-gradient-71" x1="25.93" y1="8" x2="25.93" y2="6.44" xlink:href="#linear-gradient-46"/><linearGradient id="linear-gradient-72" x1="22.95" y1="13.99" x2="22.95" y2="12.24" xlink:href="#linear-gradient-46"/><linearGradient id="linear-gradient-73" x1="22.31" y1="8.42" x2="22.31" y2="6.52" xlink:href="#linear-gradient-46"/><linearGradient id="linear-gradient-74" x1="20.65" y1="23.7" x2="20.65" y2="21.62" xlink:href="#linear-gradient-56"/><linearGradient id="linear-gradient-75" x1="22.15" y1="19.63" x2="22.15" y2="17.78" xlink:href="#linear-gradient-49"/><linearGradient id="linear-gradient-76" x1="22.6" y1="17.72" x2="22.6" y2="15.94" xlink:href="#linear-gradient-49"/><linearGradient id="linear-gradient-77" x1="22.85" y1="15.85" x2="22.85" y2="14.09" xlink:href="#linear-gradient-49"/><linearGradient id="linear-gradient-78" x1="26.08" y1="13.45" x2="26.08" y2="11.86" xlink:href="#linear-gradient-46"/><linearGradient id="linear-gradient-79" x1="22.26" y1="26.28" x2="22.26" y2="23.95" xlink:href="#linear-gradient-42"/><linearGradient id="linear-gradient-80" x1="19.47" y1="27.71" x2="19.47" y2="25.38" xlink:href="#linear-gradient-42"/><linearGradient id="linear-gradient-81" x1="22.11" y1="23.07" x2="22.11" y2="21.12" xlink:href="#linear-gradient-56"/><linearGradient id="linear-gradient-82" x1="27.73" y1="9.79" x2="27.73" y2="8.27" xlink:href="#linear-gradient-46"/><linearGradient id="linear-gradient-83" x1="27.71" y1="11.55" x2="27.71" y2="10.05" xlink:href="#linear-gradient-46"/><linearGradient id="linear-gradient-84" x1="26.18" y1="11.68" x2="26.18" y2="10.11" xlink:href="#linear-gradient-46"/><linearGradient id="linear-gradient-85" x1="1.03" y1="15.12" x2="1.03" y2="13.27" gradientTransform="matrix(1, 0, 0, -1, 0, 30.69)" gradientUnits="userSpaceOnUse"><stop offset="0.2" stop-color="#2a78c0"/><stop offset="0.8" stop-color="#38b1d8"/></linearGradient><linearGradient id="linear-gradient-86" x1="4.47" y1="22.26" x2="4.47" y2="20.47" gradientTransform="matrix(1, 0, 0, -1, 0, 30.69)" gradientUnits="userSpaceOnUse"><stop offset="0.19" stop-color="#2d2ac0"/><stop offset="0.78" stop-color="#2a66c0"/></linearGradient><linearGradient id="linear-gradient-87" x1="0.33" y1="11.5" x2="0.33" y2="9.32" xlink:href="#linear-gradient-85"/><linearGradient id="linear-gradient-88" x1="0.38" y1="8.38" x2="0.38" y2="5.2" gradientTransform="matrix(1, 0, 0, -1, 0, 30.69)" gradientUnits="userSpaceOnUse"><stop offset="0.19" stop-color="#2aa5c0"/><stop offset="0.78" stop-color="#33dfea"/></linearGradient><linearGradient id="linear-gradient-89" x1="11.75" y1="29.38" x2="11.75" y2="27.58" gradientTransform="matrix(1, 0, 0, -1, 0, 30.69)" gradientUnits="userSpaceOnUse"><stop offset="0.17" stop-color="#440b58"/><stop offset="0.78" stop-color="#b52fe4"/></linearGradient><linearGradient id="linear-gradient-90" x1="13.18" y1="30.12" x2="13.18" y2="28.48" xlink:href="#linear-gradient-89"/><linearGradient id="linear-gradient-91" x1="10.34" y1="28.4" x2="10.34" y2="26.61" xlink:href="#linear-gradient-89"/><linearGradient id="linear-gradient-92" x1="7.81" y1="26.19" x2="7.81" y2="24.44" gradientTransform="matrix(1, 0, 0, -1, 0, 30.69)" gradientUnits="userSpaceOnUse"><stop offset="0.16" stop-color="#6c2ac0"/><stop offset="0.78" stop-color="#7561c7"/></linearGradient><linearGradient id="linear-gradient-93" x1="6.64" y1="24.98" x2="6.64" y2="23.24" xlink:href="#linear-gradient-92"/><linearGradient id="linear-gradient-94" x1="7.47" y1="22.59" x2="7.47" y2="20.59" xlink:href="#linear-gradient-86"/><linearGradient id="linear-gradient-95" x1="5.85" y1="22.65" x2="5.85" y2="20.59" xlink:href="#linear-gradient-86"/><linearGradient id="linear-gradient-96" x1="4.7" y1="21.27" x2="4.7" y2="19.07" xlink:href="#linear-gradient-86"/><linearGradient id="linear-gradient-97" x1="4.97" y1="19.92" x2="4.97" y2="17.69" xlink:href="#linear-gradient-86"/><linearGradient id="linear-gradient-98" x1="5.24" y1="18.55" x2="5.24" y2="16.29" xlink:href="#linear-gradient-86"/><linearGradient id="linear-gradient-99" x1="2.54" y1="16.51" x2="2.54" y2="13.82" xlink:href="#linear-gradient-85"/><linearGradient id="linear-gradient-100" x1="7.88" y1="21.24" x2="7.88" y2="19.21" xlink:href="#linear-gradient-86"/><linearGradient id="linear-gradient-101" x1="3.56" y1="19.75" x2="3.56" y2="17.35" xlink:href="#linear-gradient-86"/><linearGradient id="linear-gradient-102" x1="2.86" y1="13.63" x2="2.86" y2="10.65" xlink:href="#linear-gradient-85"/><linearGradient id="linear-gradient-103" x1="8.79" y1="23.73" x2="8.79" y2="21.81" xlink:href="#linear-gradient-92"/><linearGradient id="linear-gradient-104" x1="9.61" y1="26.12" x2="9.61" y2="24.27" xlink:href="#linear-gradient-92"/><linearGradient id="linear-gradient-105" x1="13.98" y1="25.12" x2="13.98" y2="23.4" xlink:href="#linear-gradient-92"/><linearGradient id="linear-gradient-106" x1="6.19" y1="21.33" x2="6.19" y2="19.21" xlink:href="#linear-gradient-86"/><linearGradient id="linear-gradient-107" x1="10.76" y1="23.43" x2="10.76" y2="21.56" xlink:href="#linear-gradient-92"/><linearGradient id="linear-gradient-108" x1="2.43" y1="18" x2="2.43" y2="15.32" xlink:href="#linear-gradient-85"/><linearGradient id="linear-gradient-109" x1="12.32" y1="24.33" x2="12.32" y2="22.54" xlink:href="#linear-gradient-92"/><linearGradient id="linear-gradient-110" x1="8.27" y1="25.06" x2="8.27" y2="23.15" xlink:href="#linear-gradient-92"/><linearGradient id="linear-gradient-111" x1="14.14" y1="28.76" x2="14.14" y2="27.09" xlink:href="#linear-gradient-89"/><linearGradient id="linear-gradient-112" x1="14.69" y1="23.65" x2="14.69" y2="21.53" xlink:href="#linear-gradient-92"/><linearGradient id="linear-gradient-113" x1="15.8" y1="25.82" x2="15.8" y2="24.16" xlink:href="#linear-gradient-92"/><linearGradient id="linear-gradient-114" x1="15" y1="27.3" x2="15" y2="25.63" xlink:href="#linear-gradient-89"/><linearGradient id="linear-gradient-115" x1="11.37" y1="21.99" x2="11.37" y2="19.89" xlink:href="#linear-gradient-86"/><linearGradient id="linear-gradient-116" x1="16.63" y1="24.3" x2="16.63" y2="22.17" xlink:href="#linear-gradient-92"/><linearGradient id="linear-gradient-117" x1="4.19" y1="15.54" x2="4.19" y2="12.84" xlink:href="#linear-gradient-85"/><linearGradient id="linear-gradient-118" x1="6.88" y1="18.59" x2="6.88" y2="16.29" xlink:href="#linear-gradient-86"/><linearGradient id="linear-gradient-119" x1="8.32" y1="19.86" x2="8.32" y2="17.68" xlink:href="#linear-gradient-86"/><linearGradient id="linear-gradient-120" x1="9.79" y1="20.99" x2="9.79" y2="18.88" xlink:href="#linear-gradient-86"/><linearGradient id="linear-gradient-121" x1="10.2" y1="24.79" x2="10.2" y2="22.93" xlink:href="#linear-gradient-92"/><linearGradient id="linear-gradient-122" x1="1.24" y1="15.92" x2="1.24" y2="12.79" xlink:href="#linear-gradient-85"/><linearGradient id="linear-gradient-123" x1="1.4" y1="12.77" x2="1.4" y2="9.69" xlink:href="#linear-gradient-85"/><linearGradient id="linear-gradient-124" x1="3.96" y1="16.94" x2="3.96" y2="14.51" xlink:href="#linear-gradient-85"/><linearGradient id="linear-gradient-125" x1="12.53" y1="27.99" x2="12.53" y2="26.23" xlink:href="#linear-gradient-89"/><linearGradient id="linear-gradient-126" x1="11.02" y1="27.1" x2="11.02" y2="25.3" xlink:href="#linear-gradient-89"/><linearGradient id="linear-gradient-127" x1="11.69" y1="25.74" x2="11.69" y2="23.94" xlink:href="#linear-gradient-92"/></defs><g id="Layer_2" data-name="Layer 2"><g id="Layer_1-2" data-name="Layer 1"><path d="M20.43,29.41l1.28-.12c.19-.12.4-.23.59-.36C21.69,29.11,21.07,29.27,20.43,29.41Z" fill="#4cdee8"/><path d="M12.89,29.53c-.15.13-.29.27-.44.39.5,0,1,.07,1.55.08l.39-.32Q13.63,29.62,12.89,29.53Z" fill="url(#linear-gradient)"/><path d="M24,28.28c.14,0,.28,0,.42-.06.59-.23,1.14-.46,1.67-.71l-1.17.2C24.6,27.9,24.29,28.1,24,28.28Z" fill="url(#linear-gradient-2)"/><path d="M28.5,26.25a12.61,12.61,0,0,0,1.17-.75,10,10,0,0,1-2.15.45c-.3.21-.59.43-.9.63C27.25,26.5,27.88,26.38,28.5,26.25Z" fill="url(#linear-gradient-3)"/><path d="M4.52,26.94c-.43-.23-.87-.47-1.3-.73-.13.25-.27.49-.4.73l-.18.36c.37.19.81.39,1.32.61.14-.27.3-.54.44-.8A.52.52,0,0,0,4.52,26.94Z" fill="url(#linear-gradient-4)"/><path d="M3,26.07c-.4-.24-.79-.48-1.16-.73a13,13,0,0,0-.47,1.22,12.19,12.19,0,0,0,1.08.62l.16-.35C2.72,26.58,2.85,26.33,3,26.07Z" fill="url(#linear-gradient-5)"/><path d="M4.77,27.07l-.12.19c-.15.25-.29.51-.43.76.41.17.84.34,1.33.5l.53-.85A14.17,14.17,0,0,1,4.77,27.07Z" fill="url(#linear-gradient-6)"/><path d="M7.9,28.37l-.53.7,1.37.32.5-.61C8.79,28.66,8.34,28.52,7.9,28.37Z" fill="url(#linear-gradient-7)"/><path d="M9.5,28.85c-.17.19-.34.4-.5.6.45.09.91.17,1.39.24.16-.16.33-.34.48-.51C10.42,29.08,10,29,9.5,28.85Z" fill="url(#linear-gradient-8)"/><path d="M10.66,27.53c.48.14.94.27,1.43.38l.7-.73c-.47-.12-.95-.26-1.42-.43C11.13,27,10.89,27.26,10.66,27.53Z" fill="url(#linear-gradient-9)"/><path d="M12.88,28.42l-.76-.15-.69.71.11,0c.44.09.88.16,1.33.23l.73-.68Z" fill="url(#linear-gradient-10)"/><path d="M15.48,28.79c-.51-.05-1-.12-1.55-.19l-.74.66c.5.06,1,.13,1.52.17l.5-.41Z" fill="url(#linear-gradient-11)"/><path d="M14.23,28.33c.52.08,1,.14,1.56.19l.77-.64c-.53-.06-1-.14-1.58-.22Z" fill="url(#linear-gradient-12)"/><path d="M16.88,27.62c.2-.17.41-.33.6-.51l.17-.14q-.81-.12-1.62-.27l-.77.69C15.8,27.48,16.34,27.55,16.88,27.62Z" fill="url(#linear-gradient-13)"/><path d="M20.3,28.64l.86-.58c-.65,0-1.29,0-1.95,0l-.82.59C19,28.67,19.66,28.66,20.3,28.64Z" fill="url(#linear-gradient-14)"/><path d="M11.61,26.47c.48.15,1,.31,1.44.43.22-.23.45-.46.66-.69l.06-.05c-.49-.14-1-.29-1.44-.47-.09.1-.18.19-.27.3Z" fill="url(#linear-gradient-15)"/><path d="M17.55,28.92q-.86,0-1.68-.09c-.17.12-.34.27-.5.39s-.19.16-.3.23c.55,0,1.09.07,1.64.08.08-.07.17-.12.25-.18Z" fill="url(#linear-gradient-16)"/><path d="M22.74,26.94l.89-.65a.57.57,0,0,0,.13-.1q-1,0-2,0l-1,.78C21.4,27,22.07,27,22.74,26.94Z" fill="url(#linear-gradient-17)"/><path d="M9,27c.45.18.91.34,1.37.49l.68-.79c-.46-.17-.92-.33-1.37-.52C9.45,26.39,9.22,26.67,9,27Z" fill="url(#linear-gradient-18)"/><path d="M8.48,27.15c-.43-.17-.87-.36-1.29-.55l0,0c-.2.29-.42.59-.61.88.43.19.88.36,1.33.52l.18-.25Z" fill="url(#linear-gradient-19)"/><path d="M7.09,23c-.43-.28-.84-.58-1.25-.9-.24.33-.47.66-.71,1,.41.3.83.59,1.27.86Z" fill="url(#linear-gradient-20)"/><path d="M13.12,27.26l-.71.73.53.11.94.17.73-.69-.32-.07A11.59,11.59,0,0,1,13.12,27.26Z" fill="url(#linear-gradient-21)"/><path d="M9.61,25.69l.31-.38c.13-.17.27-.32.4-.48-.45-.22-.9-.44-1.34-.68-.24.29-.47.6-.7.89C8.72,25.28,9.16,25.5,9.61,25.69Z" fill="url(#linear-gradient-22)"/><path d="M19.9,28.9c-.62,0-1.25,0-1.88,0-.28.2-.56.41-.85.6.61,0,1.22,0,1.82,0C19.3,29.3,19.61,29.11,19.9,28.9Z" fill="url(#linear-gradient-23)"/><path d="M8,24.9s0,0,0,0c.22-.3.45-.59.66-.9-.43-.24-.87-.51-1.28-.79l-.7,1C7.11,24.42,7.54,24.67,8,24.9Z" fill="#2aa5c0"/><path d="M10.13,27.72c-.47-.14-.91-.31-1.36-.47l-.5.63-.14.2q.66.23,1.35.42L9.86,28Z" fill="url(#linear-gradient-24)"/><path d="M3.18,25.72c.19-.36.4-.72.6-1.06-.41-.28-.81-.57-1.2-.88-.22.43-.41.83-.57,1.17C2.38,25.21,2.78,25.46,3.18,25.72Z" fill="url(#linear-gradient-25)"/><path d="M6.1,21.78q.6.48,1.23.9l.59-.79c.14-.16.27-.34.41-.51-.38-.3-.77-.62-1.15-.94a12.87,12.87,0,0,0-.95,1.15A2.14,2.14,0,0,1,6.1,21.78Z" fill="url(#linear-gradient-26)"/><path d="M5.56,21.88c-.43-.34-.84-.71-1.25-1.09-.25.38-.48.73-.68,1.09a13.73,13.73,0,0,0,1.24,1C5.09,22.56,5.33,22.21,5.56,21.88Z" fill="url(#linear-gradient-27)"/><path d="M4.15,24c.17-.27.32-.53.49-.78-.42-.32-.83-.65-1.23-1-.23.41-.45.78-.63,1.14.4.32.81.62,1.22.9A1.35,1.35,0,0,1,4.15,24Z" fill="url(#linear-gradient-28)"/><path d="M10.55,24.55c.29-.36.59-.71.9-1.06-.44-.24-.86-.5-1.29-.78l-1,1.13C9.65,24.1,10.1,24.33,10.55,24.55Z" fill="url(#linear-gradient-29)"/><path d="M5.93,21.37c.31-.41.62-.8,1-1.18C6.43,19.8,6,19.4,5.54,19c-.36.49-.7,1-1,1.44.41.39.83.76,1.26,1.12A.88.88,0,0,0,5.93,21.37Z" fill="url(#linear-gradient-30)"/><path d="M20.2,26.92l1-.78c-.61,0-1.21-.09-1.81-.17l-1,.79C19,26.84,19.6,26.88,20.2,26.92Z" fill="url(#linear-gradient-31)"/><path d="M15.76,26.32l.17,0c.3-.29.59-.55.89-.82-.53-.13-1-.26-1.53-.41l-.87.86C14.85,26.11,15.3,26.23,15.76,26.32Z" fill="url(#linear-gradient-32)"/><path d="M14.05,25.88c.28-.29.56-.58.86-.86-.5-.17-1-.35-1.43-.54-.29.31-.59.61-.87.93C13.07,25.58,13.56,25.73,14.05,25.88Z" fill="url(#linear-gradient-33)"/><path d="M12.27,25.27c.28-.32.57-.64.85-.94-.46-.21-.91-.42-1.34-.65-.31.33-.6.67-.9,1C11.33,24.9,11.79,25.09,12.27,25.27Z" fill="url(#linear-gradient-34)"/><path d="M8.72,26.85c.21-.28.43-.57.66-.85-.45-.19-.9-.41-1.34-.63-.23.3-.45.6-.67.91Z" fill="url(#linear-gradient-35)"/><path d="M22.72,28.67c-.74.09-1.48.16-2.23.21l-.93.6.87-.07c.64-.14,1.27-.3,1.86-.47C22.43,28.84,22.57,28.76,22.72,28.67Z" fill="url(#linear-gradient-36)"/><path d="M24.53,27.53l.81-.54c-.78.09-1.55.16-2.33.19-.27.19-.56.37-.82.56C23,27.71,23.75,27.63,24.53,27.53Z" fill="url(#linear-gradient-37)"/><path d="M17.32,27.67c.57.06,1.16.1,1.75.11l.3-.21.5-.39c-.59,0-1.17-.09-1.76-.15-.13.12-.27.22-.4.33A3.32,3.32,0,0,0,17.32,27.67Z" fill="url(#linear-gradient-38)"/><path d="M4,24.83c-.21.34-.41.68-.6,1,.42.26.85.51,1.3.74.19-.33.39-.66.59-1C4.88,25.37,4.45,25.11,4,24.83Z" fill="url(#linear-gradient-39)"/><path d="M6.28,27.35l.62-.91c-.45-.21-.89-.43-1.31-.67-.21.32-.41.64-.6,1,.42.21.84.42,1.28.61Z" fill="url(#linear-gradient-40)"/><path d="M7.1,26.13l.65-.92c-.44-.23-.87-.49-1.3-.74l-.12.15c-.19.27-.36.54-.54.82C6.23,25.68,6.66,25.92,7.1,26.13Z" fill="url(#linear-gradient-41)"/><path d="M22.92,6c-.25-.35-.49-.71-.75-1l-.6-.33C22,5.07,22.47,5.53,22.92,6Z" fill="url(#linear-gradient-42)"/><path d="M26.79,12.44l.57.19c-.21-.45-.44-.91-.7-1.38l-.48-.18C26.39,11.52,26.59,12,26.79,12.44Z" fill="url(#linear-gradient-43)"/><path d="M20.16,3.52c-.09-.12-.18-.22-.27-.33-.49-.4-1-.76-1.45-1.09.26.3.5.6.75.91S19.84,3.34,20.16,3.52Z" fill="url(#linear-gradient-44)"/><path d="M16.12.64C15.68.4,15.26.18,14.88,0a9.48,9.48,0,0,1,1.46,1.63c.35.14.68.29,1,.46C17,1.59,16.55,1.11,16.12.64Z" fill="url(#linear-gradient-45)"/><path d="M28.71,20.94c0,.5,0,1,0,1.48l.83,0,.4,0c0-.41-.07-.9-.13-1.46q-.46,0-.93,0Z" fill="url(#linear-gradient-46)"/><path d="M28.74,22.7c0,.46,0,.9-.07,1.36.86-.1,1.31-.2,1.31-.2a10.89,10.89,0,0,0,0-1.24l-.4,0Z" fill="url(#linear-gradient-47)"/><path d="M28.7,20.67h1.1c-.05-.43-.13-.9-.23-1.4l-1,0C28.63,19.72,28.67,20.19,28.7,20.67Z" fill="url(#linear-gradient-48)"/><path d="M28.27,17.32c.3,0,.59.08.89.1-.12-.43-.26-.88-.41-1.34L28,16Q28.14,16.63,28.27,17.32Z" fill="url(#linear-gradient-49)"/><path d="M27.89,15.7l.77.14c-.14-.43-.31-.88-.49-1.32l-.68-.16C27.63,14.8,27.77,15.24,27.89,15.7Z" fill="url(#linear-gradient-50)"/><path d="M26.16,15.36c-.12-.47-.23-.95-.37-1.42q-.51-.11-1-.24c.13.47.24,1,.35,1.44C25.47,15.22,25.81,15.29,26.16,15.36Z" fill="url(#linear-gradient-51)"/><path d="M25.83,13c.09.24.16.49.24.73L27,14a.42.42,0,0,0,0-.1c-.14-.42-.31-.84-.47-1.26l-.95-.3C25.66,12.55,25.75,12.78,25.83,13Z" fill="url(#linear-gradient-52)"/><path d="M24.85,10.58c.22.47.41.94.6,1.43l.95.3c-.19-.47-.39-.93-.61-1.39l-.61-.23A1.83,1.83,0,0,1,24.85,10.58Z" fill="url(#linear-gradient-53)"/><path d="M25.07,11.89c-.19-.48-.4-1-.62-1.44l-.93-.34c.2.48.41,1,.59,1.47Z" fill="url(#linear-gradient-54)"/><path d="M23.13,10l-.74-.27-.2-.08c.2.5.39,1,.57,1.52.34.1.66.22,1,.32C23.54,11,23.34,10.45,23.13,10Z" fill="url(#linear-gradient-55)"/><path d="M22.3,6.5l-.93-.45c.34.55.67,1.11,1,1.67l.93.41C23,7.58,22.65,7,22.3,6.5Z" fill="url(#linear-gradient-56)"/><path d="M24.76,15.08c-.1-.49-.22-1-.34-1.46l-.94-.23-.08,0c.12.48.22,1,.31,1.48l.4.09C24.31,15,24.53,15,24.76,15.08Z" fill="url(#linear-gradient-57)"/><path d="M23.93,8.73c.27.5.52,1,.76,1.49l.58.23.35.14c-.24-.48-.49-1-.76-1.45L24.58,9Z" fill="url(#linear-gradient-58)"/><path d="M19.61,5.25l-1-.45a.45.45,0,0,1-.14-.06c.33.55.66,1.14,1,1.75L20.61,7C20.3,6.4,20,5.82,19.61,5.25Z" fill="url(#linear-gradient-59)"/><path d="M26.49,17.08c-.07-.47-.16-1-.27-1.43l-1-.19c.09.48.16,1,.23,1.45C25.77,17,26.13,17,26.49,17.08Z" fill="url(#linear-gradient-60)"/><path d="M26.92,17.42c.06.46.12.93.16,1.39v.05q.54.06,1.08.09c-.05-.47-.13-.94-.22-1.41a3,3,0,0,0-.31,0Z" fill="url(#linear-gradient-61)"/><path d="M24,20.7c0,.51-.09,1-.17,1.51.41.05.82.08,1.23.12.06-.51.1-1,.13-1.53Z" fill="url(#linear-gradient-62)"/><path d="M24.7,13.38l1,.26c-.05-.18-.11-.36-.16-.53s-.21-.6-.32-.89l-1-.29.11.3C24.47,12.62,24.58,13,24.7,13.38Z" fill="url(#linear-gradient-63)"/><path d="M25.08,17.18c-.16,0-.32,0-.48-.06L24,17c0,.5.06,1,.08,1.49l1.14.17C25.17,18.16,25.13,17.66,25.08,17.18Z" fill="url(#linear-gradient-64)"/><path d="M22.74,6.72c.33.52.66,1.07,1,1.61l.95.44c-.3-.52-.62-1-.95-1.56C23.38,7,23.06,6.87,22.74,6.72Z" fill="url(#linear-gradient-65)"/><path d="M25.21,19h0l-1.1-.14c0,.49,0,1,0,1.5l1.18.13C25.22,20,25.22,19.47,25.21,19Z" fill="url(#linear-gradient-66)"/><path d="M26.59,15.73q.16.7.27,1.41l.81.12.23,0c-.09-.46-.19-.92-.31-1.38L27,15.8Z" fill="url(#linear-gradient-67)"/><path d="M28.33,22.71H27.09c0,.5-.09,1-.16,1.48.49,0,.92-.06,1.31-.1Z" fill="url(#linear-gradient-68)"/><path d="M23.43,22.16c.08-.49.14-1,.18-1.51l-1-.12-.65-.1c-.08.48-.16,1-.25,1.46.49.11,1,.18,1.48.25Z" fill="url(#linear-gradient-69)"/><path d="M23.78,22.57c-.09.55-.2,1.1-.34,1.63.45,0,.89,0,1.3,0,.11-.52.2-1,.27-1.58C24.61,22.65,24.2,22.61,23.78,22.57Z" fill="url(#linear-gradient-70)"/><path d="M26.36,22.72l-.92,0c-.06.52-.15,1-.25,1.55l1.3,0c.08-.5.14-1,.18-1.51Z" fill="url(#linear-gradient-71)"/><path d="M23.61,17c-.46-.08-.91-.15-1.36-.24,0,.49,0,1,0,1.49.49.09,1,.18,1.48.25C23.67,17.94,23.65,17.45,23.61,17Z" fill="url(#linear-gradient-72)"/><path d="M23.15,22.51c-.5-.07-1-.13-1.52-.23-.11.57-.24,1.16-.37,1.76.62.06,1.2.1,1.75.14.14-.55.25-1.1.34-1.66Z" fill="url(#linear-gradient-73)"/><path d="M20.85,7.46,19.69,7c.27.53.52,1.08.77,1.64l1.16.43C21.38,8.53,21.12,8,20.85,7.46Z" fill="url(#linear-gradient-74)"/><path d="M22.56,11.57a1,1,0,0,1,0-.16l-1.16-.35c.16.52.3,1,.41,1.52l1.18.33C22.83,12.46,22.7,12,22.56,11.57Z" fill="url(#linear-gradient-75)"/><path d="M23,13.28,21.85,13c.11.51.19,1,.26,1.49.41.11.83.2,1.24.3C23.25,14.26,23.15,13.76,23,13.28Z" fill="url(#linear-gradient-76)"/><path d="M23.39,15.11l-1.26-.26c.06.49.09,1,.11,1.49l1.33.27Q23.51,15.85,23.39,15.11Z" fill="url(#linear-gradient-77)"/><path d="M26.53,17.38l-1.08-.14c.06.49.11,1,.13,1.47l1.12.13C26.66,18.34,26.61,17.85,26.53,17.38Z" fill="url(#linear-gradient-78)"/><path d="M21.12,4.41c.45.6.89,1.2,1.3,1.82l1,.51L22.92,6c-.45-.49-.9-.95-1.35-1.37C21.42,4.56,21.28,4.49,21.12,4.41Z" fill="url(#linear-gradient-79)"/><path d="M19.23,3.42c-.3-.14-.58-.3-.88-.44.48.63.91,1.26,1.34,1.91l.89.42C20.16,4.68,19.7,4,19.23,3.42Z" fill="url(#linear-gradient-80)"/><path d="M23,9.57C22.71,9,22.46,8.51,22.19,8l-.34-.14-.59-.24q.4.78.75,1.59l.48.18C22.65,9.44,22.8,9.51,23,9.57Z" fill="url(#linear-gradient-81)"/><path d="M27.12,22.42h1.21c0-.5,0-1,0-1.49l-1.15,0C27.17,21.41,27.15,21.92,27.12,22.42Z" fill="url(#linear-gradient-82)"/><path d="M28.2,19.22l-1.09-.08q.06.73.06,1.47l1.14,0c0-.48-.06-.95-.1-1.41C28.2,19.24,28.2,19.23,28.2,19.22Z" fill="url(#linear-gradient-83)"/><path d="M26.72,19.12,25.6,19c0,.5,0,1,0,1.5h.19l1,.06C26.77,20.1,26.75,19.61,26.72,19.12Z" fill="url(#linear-gradient-84)"/><path d="M1.29,15.57c-.17.39-.35.77-.52,1.16,0,.23,0,.46,0,.69C.92,16.81,1.09,16.2,1.29,15.57Z" fill="url(#linear-gradient-85)"/><path d="M5,9c0-.19-.08-.39-.13-.58-.28.4-.56.84-.84,1.28l.07.5C4.36,9.81,4.65,9.42,5,9Z" fill="url(#linear-gradient-86)"/><path d="M.5,19.19l-.15.4C.24,20.2.17,20.8.12,21.37c.12-.37.26-.72.42-1.09C.51,19.92.5,19.55.5,19.19Z" fill="url(#linear-gradient-87)"/><path d="M0,24.1c0,.51,0,1,.06,1.39a10.11,10.11,0,0,1,.7-2.08C.7,23,.68,22.68.64,22.32.42,22.9.21,23.5,0,24.1Z" fill="url(#linear-gradient-88)"/><path d="M11.39,3.11c.43-.27.85-.52,1.29-.76-.15-.23-.3-.48-.44-.71L12,1.31c-.34.22-.75.5-1.19.83.17.26.32.52.47.78A1.63,1.63,0,0,0,11.39,3.11Z" fill="url(#linear-gradient-89)"/><path d="M12.92,2.22c.4-.22.81-.42,1.22-.63a11.89,11.89,0,0,0-.84-1,10.74,10.74,0,0,0-1.09.62l.24.33C12.61,1.73,12.77,2,12.92,2.22Z" fill="url(#linear-gradient-90)"/><path d="M11.16,3.25c0-.06-.06-.13-.1-.19-.14-.26-.29-.51-.45-.77-.34.27-.72.56-1.1.91.17.29.32.59.47.88C10.37,3.79,10.77,3.52,11.16,3.25Z" fill="url(#linear-gradient-91)"/><path d="M8.46,5.3l-.35-.8q-.48.48-1,1c.1.24.19.48.28.74C7.77,5.93,8.1,5.61,8.46,5.3Z" fill="url(#linear-gradient-92)"/><path d="M7.23,6.44,7,5.71c-.31.34-.6.7-.91,1.08.06.22.14.45.2.67C6.57,7.11,6.9,6.77,7.23,6.44Z" fill="url(#linear-gradient-93)"/><path d="M7.82,8.11c-.36.33-.71.67-1,1,.1.32.19.65.28,1,.35-.35.72-.69,1.09-1C8,8.77,7.92,8.44,7.82,8.11Z" fill="url(#linear-gradient-94)"/><path d="M5.93,9.57,6.45,9,6.18,8l-.07.08c-.29.33-.59.69-.86,1,.08.32.15.64.22,1C5.61,9.93,5.77,9.75,5.93,9.57Z" fill="url(#linear-gradient-95)"/><path d="M4.31,11.62c.3-.42.61-.83.94-1.23-.06-.32-.14-.65-.2-1-.31.39-.62.81-.9,1.22,0,.21.07.42.11.63A1.41,1.41,0,0,0,4.31,11.62Z" fill="url(#linear-gradient-96)"/><path d="M5.33,10.77c-.33.41-.65.83-1,1.25,0,.33.12.65.18,1,.32-.42.66-.84,1-1.25C5.47,11.43,5.4,11.1,5.33,10.77Z" fill="url(#linear-gradient-97)"/><path d="M4.63,13.41c0,.25.09.52.14.77a1.7,1.7,0,0,0,0,.22c.33-.43.68-.84,1-1.25l-.21-1C5.28,12.55,5,13,4.63,13.41Z" fill="url(#linear-gradient-98)"/><path d="M2,15.85c0,.35.06.69.08,1q.47-.86,1-1.68c0-.33-.07-.66-.11-1C2.63,14.73,2.32,15.29,2,15.85Z" fill="url(#linear-gradient-99)"/><path d="M8.25,9.46c-.37.33-.74.67-1.09,1q.13.45.27.93s0,.05,0,.07c.37-.34.74-.67,1.13-1l-.12-.39C8.39,9.88,8.33,9.66,8.25,9.46Z" fill="url(#linear-gradient-100)"/><path d="M3.15,13.34c.3-.47.61-.94.93-1.4,0-.2-.07-.42-.11-.62s0-.25-.05-.37c-.31.44-.6.9-.88,1.37,0,.11,0,.21,0,.31S3.13,13.1,3.15,13.34Z" fill="url(#linear-gradient-101)"/><path d="M2.28,18.8l.12,1.09a.88.88,0,0,0,0,.16c.32-.56.66-1.14,1-1.72-.05-.42-.12-.84-.17-1.27C2.94,17.64,2.6,18.21,2.28,18.8Z" fill="url(#linear-gradient-102)"/><path d="M9.15,7c-.38.3-.74.61-1.1.94.11.33.23.65.34,1,.38-.32.76-.62,1.15-.91C9.41,7.62,9.28,7.29,9.15,7Z" fill="url(#linear-gradient-103)"/><path d="M9.23,6.42c.37-.29.74-.57,1.13-.84l0,0c-.15-.33-.3-.65-.46-1-.38.28-.75.58-1.11.89L9,5.75C9.05,6,9.14,6.19,9.23,6.42Z" fill="url(#linear-gradient-104)"/><path d="M13.53,7.29c.47-.22.93-.43,1.4-.61-.17-.37-.33-.74-.51-1.11-.48.2-.94.42-1.39.65C13.2,6.56,13.37,6.92,13.53,7.29Z" fill="url(#linear-gradient-105)"/><path d="M6.82,10.35l-.27-1c-.13.14-.26.26-.37.4l-.62.73c.08.33.16.65.23,1L6,11.23C6.27,10.92,6.54,10.64,6.82,10.35Z" fill="url(#linear-gradient-106)"/><path d="M9.93,8.12c.07.15.13.3.18.44s.14.39.22.58c.41-.28.83-.55,1.26-.82-.14-.35-.29-.7-.43-1.06C10.74,7.54,10.33,7.83,9.93,8.12Z" fill="url(#linear-gradient-107)"/><path d="M2,15.37c.29-.56.6-1.11.92-1.64,0-.35-.06-.69-.1-1-.31.53-.6,1.06-.88,1.6C2,14.66,2,15,2,15.37Z" fill="url(#linear-gradient-108)"/><path d="M11.43,7.11s0,0,0,0c.15.34.29.67.43,1,.44-.26.89-.49,1.33-.72-.15-.35-.32-.72-.48-1.08C12.29,6.6,11.86,6.84,11.43,7.11Z" fill="url(#linear-gradient-109)"/><path d="M7.91,7.54,9,6.6c-.11-.25-.21-.5-.31-.75L8.6,5.63c-.36.31-.7.63-1,1,.06.18.14.37.2.55A3,3,0,0,1,7.91,7.54Z" fill="url(#linear-gradient-110)"/><path d="M13.14,2.56c.22.35.42.7.63,1,.44-.22.91-.41,1.37-.6-.27-.41-.52-.77-.73-1.07C14,2.14,13.55,2.34,13.14,2.56Z" fill="url(#linear-gradient-111)"/><path d="M15.1,7.05q-.72.27-1.41.6c.13.3.27.6.38.9l.23.61c.45-.18.93-.34,1.4-.52-.15-.47-.33-.93-.52-1.4A1.82,1.82,0,0,1,15.1,7.05Z" fill="url(#linear-gradient-112)"/><path d="M15.28,6.54q.78-.29,1.59-.54c-.21-.41-.41-.77-.62-1.13-.51.16-1,.34-1.51.55C14.93,5.8,15.11,6.17,15.28,6.54Z" fill="url(#linear-gradient-113)"/><path d="M14.11,4.24c.16.27.3.55.44.82.48-.2,1-.4,1.48-.56-.23-.41-.46-.78-.66-1.11-.48.18-.94.38-1.4.59C14,4.07,14.06,4.15,14.11,4.24Z" fill="url(#linear-gradient-114)"/><path d="M10.47,9.51c.17.43.32.86.48,1.3.42-.26.87-.49,1.32-.72-.17-.47-.34-.93-.52-1.39A12,12,0,0,0,10.47,9.51Z" fill="url(#linear-gradient-115)"/><path d="M15.53,7.11c.21.46.39.93.57,1.42.55-.2,1.13-.37,1.72-.56-.26-.57-.5-1.09-.76-1.57-.55.15-1.09.33-1.62.52A.82.82,0,0,1,15.53,7.11Z" fill="url(#linear-gradient-116)"/><path d="M3.58,16.62c.06.41.11.83.18,1.23.33-.49.67-1,1-1.47L4.6,15.15C4.24,15.64,3.91,16.12,3.58,16.62Z" fill="url(#linear-gradient-117)"/><path d="M6.31,13.1l-.12.13.27,1.17q.56-.59,1.11-1.11l-.3-1.18Z" fill="url(#linear-gradient-118)"/><path d="M7.56,11.84c.12.39.22.78.33,1.17.39-.34.79-.66,1.18-1-.11-.4-.24-.81-.37-1.21C8.31,11.15,7.92,11.5,7.56,11.84Z" fill="url(#linear-gradient-119)"/><path d="M9,10.6c.13.41.27.81.4,1.21.41-.29.82-.57,1.24-.82-.14-.44-.28-.86-.43-1.29C9.77,10,9.37,10.3,9,10.6Z" fill="url(#linear-gradient-120)"/><path d="M9.38,6.77c.14.33.28.66.41,1,.4-.29.81-.57,1.22-.84-.14-.34-.3-.69-.45-1C10.15,6.18,9.77,6.46,9.38,6.77Z" fill="url(#linear-gradient-121)"/><path d="M.78,17.91c.3-.69.6-1.36.94-2,0-.37,0-.74-.05-1.11l-.39.79c-.19.63-.37,1.24-.51,1.85C.78,17.57.78,17.74.78,17.91Z" fill="url(#linear-gradient-122)"/><path d="M.87,20c0,.32,0,.65.07,1,.3-.71.64-1.41,1-2.1,0-.33-.06-.66-.08-1C1.51,18.61,1.18,19.32.87,20Z" fill="url(#linear-gradient-123)"/><path d="M4.37,13.75c-.35.47-.67,1-1,1.45,0,.12,0,.25.05.36s.07.42.09.63q.48-.74,1-1.44c0-.17-.07-.35-.09-.51S4.4,13.92,4.37,13.75Z" fill="url(#linear-gradient-124)"/><path d="M13.48,3.75c-.19-.36-.39-.7-.6-1-.43.24-.87.49-1.29.75l.55,1C12.59,4.21,13,4,13.48,3.75Z" fill="url(#linear-gradient-125)"/><path d="M10.15,4.41c.17.32.32.65.49,1,.41-.28.82-.53,1.24-.79-.17-.33-.36-.67-.54-1-.39.26-.79.53-1.16.81Z" fill="url(#linear-gradient-126)"/><path d="M10.8,5.73c.17.34.32.68.48,1,.42-.26.86-.51,1.29-.75l-.07-.16c-.14-.3-.29-.59-.44-.88C11.64,5.2,11.21,5.47,10.8,5.73Z" fill="url(#linear-gradient-127)"/></g></g></svg>