<?xml version="1.0" encoding="UTF-8" standalone="no"?>
<svg
   xmlns:dc="http://purl.org/dc/elements/1.1/"
   xmlns:cc="http://creativecommons.org/ns#"
   xmlns:rdf="http://www.w3.org/1999/02/22-rdf-syntax-ns#"
   xmlns:svg="http://www.w3.org/2000/svg"
   xmlns="http://www.w3.org/2000/svg"
   version="1.1"
   id="svg901"
   width="460"
   height="460"
   viewBox="0 0 460 460">
  <metadata
     id="metadata907">
    <rdf:RDF>
      <cc:Work
         rdf:about="">
        <dc:format>image/svg+xml</dc:format>
        <dc:type
           rdf:resource="http://purl.org/dc/dcmitype/StillImage" />
        <dc:title></dc:title>
      </cc:Work>
    </rdf:RDF>
  </metadata>
  <defs
     id="defs905" />
  <path
     style="fill:#080808;stroke:none"
     d="m 247,103.44 c -8.643,1.305 -30.056,6.561 -29.469,18.56 0.828,16.944 30.655,19.761 42.469,17.671 7.424,-1.313 24.785,-10.118 22.242,-19.667 C 279.024,107.916 257.83,101.804 247,103.44 M 231,113 v 18 c -8.757,-3.752 -9.63,-14.687 0,-18 m 38,18 v -18 c 9.476,2.494 9.374,15.338 0,18 m -33,-12 h 4 1 1 v 2 h 1 1 v -2 h 1 1 3 1 1 3 1 1 v 2 h 1 1 c 1.127,-2.006 1.873,-2.006 3,0 h 1 1 l 2,-2 v 6 l -2,-2 h -1 -1 c -1.127,2.006 -1.873,2.006 -3,0 h -1 -1 v 2 h -1 -1 -3 -1 -1 v -2 h -5 -1 -1 v 2 h -1 -1 -5 l 1,-6 m 40,161 c -6.77,-0.979 -16.067,14.942 -22,19.331 -13.332,9.862 -31.946,13.332 -48,9.086 C 160.465,296.371 157.274,225.983 171.552,190 c 5.604,-14.123 14.741,-26.698 29.448,-32.293 17.359,-6.605 51.965,-5.706 60.282,15.293 3.307,8.35 -20.268,29.379 -0.281,32.768 17.355,2.942 16.065,-19.826 11.305,-29.768 -17.759,-37.091 -79.243,-31.204 -105.135,-8.334 -30.444,26.889 -31.447,80.688 -12.859,114.334 24.092,43.607 101.194,46.964 121.688,-2 z"
     id="path987" />
  <g
     id="g959">
    <path
       style="fill:#dddddd;fill-opacity:1"
       d="m 218.25,309.31067 c 0.9625,-0.25152 2.5375,-0.25152 3.5,0 0.9625,0.25153 0.175,0.45733 -1.75,0.45733 -1.925,0 -2.7125,-0.2058 -1.75,-0.45733 z M 165.15789,229 c 0,-1.375 0.22698,-1.9375 0.50439,-1.25 0.27741,0.6875 0.27741,1.8125 0,2.5 -0.27741,0.6875 -0.50439,0.125 -0.50439,-1.25 z M 230.3605,122 c 0,-5.225 0.16854,-7.3625 0.37454,-4.75 0.206,2.6125 0.206,6.8875 0,9.5 -0.206,2.6125 -0.37454,0.475 -0.37454,-4.75 z"
       id="path985" />
    <path
       style="fill:#d4d4d4;fill-opacity:1"
       d="m 210.75,315.2596 c 3.4375,-0.19527 9.0625,-0.19527 12.5,0 3.4375,0.19527 0.625,0.35504 -6.25,0.35504 -6.875,0 -9.6875,-0.15977 -6.25,-0.35504 z M 165.25218,234.5 c 0.0111,-2.2 0.21589,-2.98225 0.45508,-1.73834 0.23919,1.24391 0.23011,3.04391 -0.0202,4 -0.25029,0.95609 -0.446,-0.0617 -0.4349,-2.26166 z m 52.56032,-85.18311 c 0.72187,-0.28887 1.58437,-0.25335 1.91667,0.0789 0.33229,0.33229 -0.25834,0.56864 -1.3125,0.52522 -1.16495,-0.048 -1.4019,-0.28494 -0.60417,-0.60416 z"
       id="path983" />
    <path
       style="fill:#cbcbcb;fill-opacity:1"
       d="m 165.15789,240 c 0,-1.375 0.22698,-1.9375 0.50439,-1.25 0.27741,0.6875 0.27741,1.8125 0,2.5 -0.27741,0.6875 -0.50439,0.125 -0.50439,-1.25 z m 0,-17 c 0,-1.375 0.22698,-1.9375 0.50439,-1.25 0.27741,0.6875 0.27741,1.8125 0,2.5 -0.27741,0.6875 -0.50439,0.125 -0.50439,-1.25 z M 235,122.5 c 0,-1.375 0.17254,-2.5 0.38342,-2.5 0.21089,0 0.59848,1.125 0.86133,2.5 0.26285,1.375 0.0903,2.5 -0.38342,2.5 C 235.3876,125 235,123.875 235,122.5 Z"
       id="path981" />
    <path
       style="fill:#b9b9b9;fill-opacity:1"
       d="m 165.07895,243.41667 c 0.048,-1.16495 0.28494,-1.4019 0.60416,-0.60417 0.28887,0.72187 0.25335,1.58437 -0.0789,1.91667 -0.3323,0.33229 -0.56864,-0.25834 -0.52522,-1.3125 z m -23,-3 c 0.048,-1.16495 0.28494,-1.4019 0.60416,-0.60417 0.28887,0.72187 0.25335,1.58437 -0.0789,1.91667 -0.3323,0.33229 -0.56864,-0.25834 -0.52522,-1.3125 z m 0,-17 c 0.048,-1.16495 0.28494,-1.4019 0.60416,-0.60417 0.28887,0.72187 0.25335,1.58437 -0.0789,1.91667 -0.3323,0.33229 -0.56864,-0.25834 -0.52522,-1.3125 z M 269.3605,122 c 0,-5.225 0.16854,-7.3625 0.37454,-4.75 0.206,2.6125 0.206,6.8875 0,9.5 -0.206,2.6125 -0.37454,0.475 -0.37454,-4.75 z"
       id="path979" />
    <path
       style="fill:#959595;fill-opacity:1"
       d="m 224.29966,122 c 0,-3.025 0.18747,-4.2625 0.41659,-2.75 0.22913,1.5125 0.22913,3.9875 0,5.5 -0.22912,1.5125 -0.41659,0.275 -0.41659,-2.75 z"
       id="path977" />
    <path
       style="fill:#8c8c8c;fill-opacity:1"
       d="m 247.8125,140.31689 c 0.72187,-0.28887 1.58437,-0.25335 1.91667,0.0789 0.33229,0.33229 -0.25834,0.56864 -1.3125,0.52522 -1.16495,-0.048 -1.4019,-0.28494 -0.60417,-0.60416 z"
       id="path975" />
    <path
       style="fill:#838383;fill-opacity:1"
       d="m 142.25218,231.5 c 0.0111,-2.2 0.21589,-2.98225 0.45508,-1.73834 0.23919,1.24391 0.23011,3.04391 -0.0202,4 -0.25029,0.95609 -0.446,-0.0617 -0.4349,-2.26166 z"
       id="path973" />
    <path
       style="fill:#7a7a7a;fill-opacity:1"
       d="m 282.15789,122 c 0,-1.375 0.22698,-1.9375 0.50439,-1.25 0.27741,0.6875 0.27741,1.8125 0,2.5 -0.27741,0.6875 -0.50439,0.125 -0.50439,-1.25 z"
       id="path971" />
    <path
       style="fill:#717171;fill-opacity:1"
       d="m 206.8125,150.31689 c 0.72187,-0.28887 1.58437,-0.25335 1.91667,0.0789 0.33229,0.33229 -0.25834,0.56864 -1.3125,0.52522 -1.16495,-0.048 -1.4019,-0.28494 -0.60417,-0.60416 z"
       id="path969" />
    <path
       style="fill:#575757;fill-opacity:1"
       d="m 246.22619,124.42128 c 0.94941,-0.99123 1.94144,-1.58698 2.20452,-1.3239 0.26308,0.26308 -0.5137,1.07408 -1.72619,1.80223 -2.10631,1.26492 -2.12762,1.24361 -0.47833,-0.47833 z"
       id="path967" />
    <path
       style="fill:#454545;fill-opacity:1"
       d="m 276.28601,121.5 c 0.008,-2.75 0.20172,-3.75631 0.43157,-2.23625 0.22986,1.52006 0.22371,3.77006 -0.0136,5 -0.23736,1.22994 -0.42542,-0.0138 -0.41792,-2.76375 z m -11.09106,1 c 0.0204,-1.65 0.2445,-2.20394 0.49804,-1.23097 0.25354,0.97297 0.23687,2.32297 -0.0371,3 -0.27393,0.67703 -0.48137,-0.11903 -0.46099,-1.76903 z"
       id="path965" />
    <path
       style="fill:#3c3c3c;fill-opacity:1"
       d="m 218.26903,153.30701 c 0.97297,-0.25354 2.32297,-0.23687 3,0.0371 0.67703,0.27393 -0.11903,0.48137 -1.76903,0.46099 -1.65,-0.0204 -2.20394,-0.2445 -1.23097,-0.49804 z"
       id="path963" />
    <path
       style="fill:#333333;fill-opacity:1"
       d="M 199.5,313.89978 C 175.94987,308.60504 159.08239,293.97925 149.44836,270.5 c -3.85642,-9.39855 -5.59174,-19.04388 -6.13713,-34.11168 -0.47992,-13.25902 -0.27047,-16.38264 1.70839,-25.47849 5.47378,-25.16026 17.41083,-42.32967 36.45335,-52.43193 11.36352,-6.02847 19.67426,-7.79649 36.52703,-7.77074 18.37363,0.0281 27.82377,2.49362 40.44366,10.55176 1.97931,1.26385 8.93373,8.08034 11.43712,11.21029 1.71524,2.14455 6.07154,14.3219 6.09255,17.03079 0.0293,3.77764 -2.05312,9.44137 -4.57204,12.43494 C 265.13611,209.38069 253,205.06229 253,195.38721 c 0,-3.2563 1.32589,-5.65668 5.49706,-9.95184 1.86103,-1.91635 3.67826,-4.41239 4.03829,-5.54676 1.28945,-4.0627 -0.54871,-9.01774 -4.95774,-13.36436 C 244.3164,153.45078 216.96612,149.67613 198,158.30186 c -11.06418,5.03195 -21.40385,16.51007 -26.25926,29.15052 -4.81834,12.54397 -5.89949,19.36171 -6.43863,40.60218 -0.45904,18.08482 -0.27395,21.80964 1.54047,31 1.91307,9.69007 4.9251,18.76529 8.31311,25.0473 3.91079,7.25133 14.79652,18.89814 17.66323,18.89814 0.5149,0 1.46877,0.64172 2.1197,1.42604 4.33291,5.22084 29.14543,7.41197 42.06456,3.71462 13.28373,-3.80169 25.1002,-12.48664 31.99682,-23.51725 3.27465,-5.23753 6.01052,-7.23443 5.99184,-4.37341 -0.0109,1.67452 -4.87945,9.82393 -7.99741,13.38686 -8.01359,9.15721 -22.54078,17.85844 -33.79365,20.2411 -6.19225,1.31113 -27.90363,1.32519 -33.70078,0.0218 z M 240,139.12268 c -7.37554,-1.62605 -20.12738,-10.64458 -21.97401,-15.54076 -1.06873,-2.83364 0.92451,-6.41934 5.62067,-10.11122 6.34023,-4.98436 8.80511,-6.27388 15.12037,-7.91033 11.53617,-2.98932 23.08323,-1.53318 32.42575,4.08906 11.18964,6.73381 13.46009,12.4303 7.35251,18.44717 -8.83622,8.70498 -14.10661,11.02511 -26.04529,11.46562 -4.95,0.18265 -10.575,-0.0152 -12.5,-0.43954 z M 231,122 c 0,-5.5 -0.26803,-10 -0.59563,-10 -0.3276,0 -1.9026,0.93064 -3.5,2.06809 -2.60089,1.852 -2.90437,2.64069 -2.90437,7.54797 0,4.7246 0.37902,5.81347 2.75,7.9003 1.5125,1.33124 3.0875,2.43466 3.5,2.45204 C 230.6625,131.98578 231,127.5 231,122 Z m 42.5534,7.25 c 3.04243,-2.42756 3.44654,-3.29652 3.44657,-7.41111 3e-5,-3.97722 -0.45139,-5.04095 -3.0767,-7.25 C 272.23108,113.165 270.43108,112 269.92327,112 269.41547,112 269,116.5 269,122 c 0,5.5 0.24904,10 0.55343,10 0.30438,0 2.10437,-1.2375 3.99997,-2.75 z m -34.33481,-4.43141 c 0.8451,0.8451 1.48172,0.8451 2.5,0 1.01828,-0.8451 1.6549,-0.8451 2.5,0 0.82574,0.82574 1.49353,0.8353 2.45762,0.0352 0.96979,-0.80486 1.7249,-0.76575 2.82379,0.14624 1.03636,0.8601 1.5,0.89795 1.5,0.12244 0,-0.61734 0.675,-1.12244 1.5,-1.12244 0.825,0 1.5,0.5051 1.5,1.12244 0,0.7618 0.49557,0.71116 1.54238,-0.15761 1.14962,-0.9541 1.83111,-0.99134 2.67621,-0.14624 0.82574,0.82574 1.49353,0.8353 2.45762,0.0352 0.96932,-0.80446 1.72228,-0.76793 2.81196,0.13642 1.20145,0.99711 1.60201,0.93838 2.07908,-0.30483 0.87242,-2.2735 0.11677,-5.96809 -1.31725,-6.44036 -0.6875,-0.22641 -1.25,0.37059 -1.25,1.32666 0,1.63023 -0.11545,1.63385 -1.85662,0.0581 -1.69251,-1.53171 -1.97313,-1.53982 -3.17488,-0.0918 -1.20256,1.449 -1.39848,1.44509 -2.23212,-0.0446 -0.83237,-1.48736 -1.03332,-1.4707 -2.2537,0.18682 -1.28436,1.74441 -1.36862,1.74552 -2.03482,0.0266 -0.63693,-1.64342 -0.84136,-1.6607 -2.44786,-0.20683 -1.6065,1.45387 -1.81093,1.43659 -2.44786,-0.20683 -0.66245,-1.70923 -0.75569,-1.71074 -1.99191,-0.0321 -1.18401,1.60775 -1.41265,1.62166 -2.62597,0.1597 -1.21384,-1.46259 -1.43955,-1.45025 -2.60413,0.14241 -1.17131,1.60186 -1.32674,1.60921 -1.9096,0.0903 C 236.26597,116.64477 235,117.93607 235,122.12244 c 0,3.60136 0.19496,3.96065 1.54238,2.84239 1.14962,-0.9541 1.83111,-0.99134 2.67621,-0.14624 z"
       id="path961" />
  </g>
</svg>
