<svg xmlns="http://www.w3.org/2000/svg" xmlns:xlink="http://www.w3.org/1999/xlink" width="51.481" height="57.033" viewBox="0 0 51.481 57.033"><defs><style>.a{fill:#fff;}.b{mix-blend-mode:difference;isolation:isolate;}.c{clip-path:url(#a);}</style><clipPath id="a"><rect class="a" width="51.481" height="57.033"/></clipPath></defs><g class="b" transform="translate(0 0)"><g class="c" transform="translate(0 0)"><path class="a" d="M79.807,75.6l7.018,3.942v7.884l-7.018,3.942-7.018-3.942V79.54L79.807,75.6m0-1.413a1.482,1.482,0,0,0-.726.189l-7.018,3.942a1.406,1.406,0,0,0-.726,1.224v7.884a1.407,1.407,0,0,0,.726,1.224l7.018,3.942a1.487,1.487,0,0,0,1.453,0l7.018-3.942a1.407,1.407,0,0,0,.726-1.224V79.54a1.407,1.407,0,0,0-.726-1.224l-7.018-3.942a1.485,1.485,0,0,0-.726-.189" transform="translate(-54.067 -54.966)"/><path class="a" d="M25.741,2.591,48.818,15.554V41.479L25.741,54.442l-10-5.619V41.069l8.46,4.752a3.162,3.162,0,0,0,3.086,0l13.089-7.352a2.988,2.988,0,0,0,1.543-2.6v-14.7a2.989,2.989,0,0,0-1.543-2.6L27.283,11.212a3.162,3.162,0,0,0-3.086,0L11.108,18.564a2.989,2.989,0,0,0-1.543,2.6V45.356l-6.9-3.877V15.554L25.741,2.591m0-2.591a2.718,2.718,0,0,0-1.332.347L1.332,13.31A2.579,2.579,0,0,0,0,15.554V41.479a2.579,2.579,0,0,0,1.332,2.244l6.9,3.877a2.728,2.728,0,0,0,2.663,0,2.579,2.579,0,0,0,1.332-2.244V21.164a.411.411,0,0,1,.212-.356l13.089-7.352a.432.432,0,0,1,.423,0l13.089,7.352a.411.411,0,0,1,.211.356v14.7a.41.41,0,0,1-.212.356L25.952,43.577a.433.433,0,0,1-.423,0l-8.46-4.752a2.727,2.727,0,0,0-2.663,0,2.578,2.578,0,0,0-1.332,2.244v7.754a2.579,2.579,0,0,0,1.332,2.244l10,5.619a2.727,2.727,0,0,0,2.663,0L50.149,43.723a2.579,2.579,0,0,0,1.332-2.244V15.554a2.578,2.578,0,0,0-1.332-2.244L27.072.347A2.721,2.721,0,0,0,25.741,0"/></g></g></svg>