<svg xmlns="http://www.w3.org/2000/svg" width="35" height="31" viewBox="0 0 35 31"><g fill="none" fill-rule="evenodd"><path fill="#21DBCC" d="M33.92 15.5c0 8.56-7.412 15.5-16.556 15.5C8.22 31 .807 24.06.807 15.5.807 6.94 8.22 0 17.364 0 26.507 0 33.92 6.94 33.92 15.5"/><path fill="#FFFFFE" d="M17.327 16.744c0 .658-.57 1.19-1.27 1.19-.703 0-1.272-.532-1.272-1.19 0-.657.569-1.19 1.27-1.19s1.272.533 1.272 1.19m2.766-2.601c0 .657-.57 1.19-1.272 1.19-.702 0-1.27-.533-1.27-1.19 0-.657.568-1.19 1.27-1.19.703 0 1.272.533 1.272 1.19m-3.174 11.134c-1.655 0-3.31-.59-4.57-1.77l1.686-1.578c1.59 1.488 4.178 1.488 5.767 0 1.59-1.488 1.59-3.91 0-5.4l1.687-1.578c2.52 2.36 2.52 6.198 0 8.557-1.26 1.179-2.915 1.769-4.57 1.769m-3.52-9.466c-2.52-2.36-2.52-6.198 0-8.557s6.62-2.359 9.14 0l-1.686 1.58c-1.59-1.49-4.177-1.49-5.767 0-1.59 1.487-1.59 3.91 0 5.398l-1.687 1.579"/></g></svg>