<svg xmlns="http://www.w3.org/2000/svg" xmlns:xlink="http://www.w3.org/1999/xlink" viewBox="0 0 866.43 866.43"><defs><style>.cls-1{fill:url(#linear-gradient);}.cls-2{fill:url(#linear-gradient-2);}</style><linearGradient id="linear-gradient" x1="477.75" y1="301.64" x2="12.61" y2="1055.83" gradientUnits="userSpaceOnUse"><stop offset="0" stop-color="#f9b442"/><stop offset="0.01" stop-color="#f9b442"/><stop offset="1" stop-color="#fde674"/><stop offset="1" stop-color="#fde674"/></linearGradient><linearGradient id="linear-gradient-2" x1="293.17" y1="587.36" x2="788.21" y2="42.48" xlink:href="#linear-gradient"/></defs><g id="Layer_2" data-name="Layer 2"><g id="Layer_1-2" data-name="Layer 1"><path class="cls-1" d="M497.27,258.08l36.57,18.84-108,203L409.23,266H317.8l44.19,320q-8.17,21.16-17.3,31.21t-20.4,13.15a58.93,58.93,0,0,1-7.87,1.68l-60.4.3L202.3,704l115.65.43a164.2,164.2,0,0,0,33.21-4.3,75.54,75.54,0,0,0,33-17.76q14.69-13.6,31.22-39.55,16.68-26.25,40-69.22L602.49,312.29l38.43,19.8V144Z"/><path class="cls-2" d="M.75,407.46h0m0-.69h0M78.4,433.21c0-196.84,159.17-357,354.81-357S788,236.37,788,433.21s-159.16,357-354.81,357S78.4,630.05,78.4,433.21M431.45,0H420.6L420,.2h-.05l-.65,0h0l-.68,0h0C194.89,7.68,14.17,184.66.79,406.77h0c0,.23,0,.46,0,.69h0c0,.68-.08,1.37-.11,2.05v0c0,.2,0,.41,0,.61v.08l0,.62a.22.22,0,0,1,0,.08l0,.58v.11c0,.22,0,.41,0,.62v.07c0,.21,0,.42,0,.64,0,0,0,0,0,.05,0,.2,0,.41,0,.61v.09c0,.18,0,.38,0,.57v.12c0,.19,0,.37,0,.56s0,.1,0,.14,0,.37,0,.56a.57.57,0,0,1,0,.13c0,.2,0,.39,0,.59v.1c0,.19,0,.39,0,.58v.12c0,.19,0,.37,0,.56v.13c0,.18,0,.34,0,.51a1.21,1.21,0,0,1,0,.19c0,.18,0,.35,0,.52v.17c0,.18,0,.34,0,.51a1.21,1.21,0,0,0,0,.19c0,.18,0,.32,0,.49v.21c0,.14,0,.28,0,.43a2.35,2.35,0,0,0,0,.27c0,.14,0,.28,0,.43s0,.18,0,.26,0,.27,0,.42a2.62,2.62,0,0,1,0,.28v.4a2.91,2.91,0,0,0,0,.3c0,.12,0,.25,0,.37v.08a1.93,1.93,0,0,1,0,.24c0,.16,0,.3,0,.46V425c0,.1,0,.21,0,.31v.25c0,.15,0,.29,0,.43a2.35,2.35,0,0,1,0,.27v.45a1.09,1.09,0,0,1,0,.18v.71a.31.31,0,0,0,0,.1v.66a.91.91,0,0,1,0,.17v.91c0,.11,0,.21,0,.32v.69c0,.36,0,.71,0,1.07v1.73c0,.93,0,1.87,0,2.8,1.51,238,194.88,430.42,433.2,430.42,239.26,0,433.22-194,433.22-433.22v-1c0-.38,0-.74,0-1.11v-.95c0-.15,0-.31,0-.46V429c0-.11,0-.21,0-.33v-.76c0-.1,0-.2,0-.3v-.42c0-.1,0-.17,0-.27s0-.31,0-.46v-.6c0-.12,0-.23,0-.35v-.24c0-.16,0-.29,0-.45s0-.16,0-.25,0-.29,0-.45v-.24c0-.16,0-.3,0-.46a1.48,1.48,0,0,0,0-.21V422a2.53,2.53,0,0,1,0-.28c0-.14,0-.27,0-.41a2.53,2.53,0,0,1,0-.27c0-.15,0-.29,0-.43a1.48,1.48,0,0,1,0-.21c0-.16,0-.33,0-.49s0-.15,0-.21,0-.32,0-.48a2.62,2.62,0,0,1,0-.28c0-.15,0-.27,0-.41s0-.2,0-.31,0-.26,0-.39,0-.2,0-.3,0-.26,0-.39,0-.18,0-.27,0-.28,0-.43,0-.17,0-.25,0-.29,0-.45a1.41,1.41,0,0,0,0-.2c0-.17,0-.32,0-.49a1.21,1.21,0,0,1,0-.19c0-.17,0-.33,0-.51v-.13l0-.56v-.17l0-.52v-.15l0-.55v-.07c0-.21,0-.4,0-.62a.34.34,0,0,0,0-.1l0-.59v-.09l0-.61s0-.06,0-.09c0-.2,0-.39,0-.6v-.09c0-.21,0-.4,0-.6v-.06c0-.22,0-.42,0-.63a.11.11,0,0,1,0-.05l0-.64v-.06c0-.21,0-.42,0-.63v-.06C852.24,184.63,671.53,7.68,447.88.24h0l-.67,0h-.05l-.64,0h-.05l-.63,0H431.45Z"/></g></g></svg>